<svg xmlns:xlink="http://www.w3.org/1999/xlink" width="80" height="31" viewBox="0 0 80 31" fill="none" xmlns="http://www.w3.org/2000/svg"><path d="M.345 8.266a8 8 0 0 1 8-8h62.858a8 8 0 0 1 8 8v13.908a8 8 0 0 1-8 8H8.345a8 8 0 0 1-8-8V8.266Z" fill="#000"></path><path d="M59.4 23.338V7.102h5.985l4.175 15.773V7.102h3.016v16.236h-6.124L62.416 7.682v15.656H59.4ZM53.597 23.338V7.102h3.132V23.34h-3.132ZM48.393 23.338l-.997-3.734h-6.402l-.997 3.734h-3.178l4.36-16.236h6.078l4.314 16.236h-3.178Zm-6.587-6.75h4.778l-2.389-8.906-2.39 8.907ZM32.066 23.338V16.52h-6.61v6.82h-3.131V7.102h3.13v6.402h6.611V7.102h3.132v16.236h-3.132ZM13.838 23.547c-4.083 0-6.866-2.505-6.866-6.935v-2.784c0-4.43 2.783-6.935 6.866-6.935 4.013 0 6.75 2.273 6.866 6.216h-3.132c-.092-2.064-1.368-3.2-3.734-3.2-2.436 0-3.735 1.345-3.735 3.92v2.783c0 2.575 1.3 4.036 3.735 4.036 2.296 0 3.595-1.16 3.734-3.132h3.132c-.186 3.85-2.923 6.031-6.866 6.031Z" fill="#FFFFFF"></path></svg>