<svg xmlns:xlink="http://www.w3.org/1999/xlink" width="24" height="25" viewBox="0 0 35 25" fill="none" xmlns="http://www.w3.org/2000/svg"><path d="M29.648 2.094A30.259 30.259 0 0 0 22.428 0c-.341.575-.65 1.167-.925 1.772a28.608 28.608 0 0 0-8.014 0A18.59 18.59 0 0 0 12.564 0a30.594 30.594 0 0 0-7.226 2.099C.768 8.47-.471 14.684.148 20.81A29.804 29.804 0 0 0 9.006 25a20.063 20.063 0 0 0 1.896-2.882 19.338 19.338 0 0 1-2.986-1.344c.25-.172.495-.348.732-.52A21.872 21.872 0 0 0 17.5 22.12c3.06 0 6.084-.637 8.853-1.864.24.184.485.36.733.519-.954.53-1.955.982-2.993 1.346A19.814 19.814 0 0 0 25.99 25a29.669 29.669 0 0 0 8.861-4.187c.727-7.104-1.241-13.26-5.203-18.72ZM11.686 17.043c-1.726 0-3.152-1.476-3.152-3.292 0-1.817 1.376-3.306 3.146-3.306s3.186 1.49 3.155 3.306c-.03 1.816-1.39 3.292-3.149 3.292Zm11.628 0c-1.729 0-3.15-1.476-3.15-3.292 0-1.817 1.377-3.306 3.15-3.306s3.177 1.49 3.147 3.306c-.03 1.816-1.388 3.292-3.147 3.292Z" fill="#FFFFFF"></path></svg>