<svg xmlns:xlink="http://www.w3.org/1999/xlink" width="30" height="30" viewBox="0 0 29 28" fill="none" xmlns="http://www.w3.org/2000/svg"><path fill-rule="evenodd" clip-rule="evenodd" d="M14.454 0A13.732 13.732 0 0 0 5.42 3.405C2.899 5.604 1.223 8.65.693 12c-.53 3.35.12 6.785 1.835 9.689 1.714 2.903 4.38 5.086 7.52 6.158.693.133.951-.31.951-.686 0-.376-.011-1.467-.018-2.662-3.877.866-4.694-1.685-4.694-1.685-.635-1.656-1.548-2.092-1.548-2.092-1.265-.887.097-.868.097-.868 1.398.102 2.134 1.472 2.134 1.472 1.244 2.186 3.26 1.554 4.057 1.183.125-.923.485-1.553.884-1.91-3.095-.362-6.349-1.588-6.349-7.063a5.593 5.593 0 0 1 1.436-3.833c-.146-.362-.623-1.815.134-3.786 0 0 1.17-.384 3.833 1.467a12.86 12.86 0 0 1 6.98 0c2.659-1.85 3.829-1.467 3.829-1.467.757 1.968.281 3.421.136 3.786a5.592 5.592 0 0 1 1.433 3.833c0 5.49-3.258 6.699-6.362 7.051.5.443.946 1.314.946 2.646 0 1.912-.016 3.452-.016 3.923 0 .379.25.826.955.684 3.14-1.073 5.804-3.257 7.517-6.16a14.593 14.593 0 0 0 1.831-9.688c-.53-3.35-2.206-6.396-4.728-8.594a13.732 13.732 0 0 0-9.032-3.404V0Z" fill="#FFFFFF"></path></svg>