<svg xmlns:xlink="http://www.w3.org/1999/xlink" width="34" height="34" viewBox="0 0 36 36" fill="none" xmlns="http://www.w3.org/2000/svg"><path fill-rule="evenodd" clip-rule="evenodd" d="M18.424 1.937C17.65.461 15.483.64 14.962 2.223L13.17 7.675a13.808 13.808 0 0 1-7.1 8.114l-4.195 2.032c-1.54.745-1.37 2.99.263 3.498l4.485 1.392a13.808 13.808 0 0 1 8.207 6.913l2.573 5.044c.753 1.478 2.91 1.332 3.459-.234l1.95-5.57a13.808 13.808 0 0 1 6.99-7.853l4.306-2.095c1.535-.747 1.366-2.986-.263-3.495l-4.537-1.419a13.808 13.808 0 0 1-8.112-6.772l-2.772-5.293Z" fill="#FFFFFF"></path></svg>