<svg xmlns:xlink="http://www.w3.org/1999/xlink" width="34" height="34" viewBox="0 0 40 38" fill="none" xmlns="http://www.w3.org/2000/svg"><path fill-rule="evenodd" clip-rule="evenodd" d="M20.567 32.109c-6.714 4.32-13.208 5.5-16.277 2.416-2.937-2.951-1.952-9.022 1.954-15.405C1.974 12.974.638 6.97 3.4 3.853 6.284.597 12.836 1.4 19.79 5.322c6.714-4.32 13.209-5.501 16.277-2.417 2.937 2.951 1.952 9.022-1.954 15.406 4.27 6.145 5.606 12.149 2.845 15.266-2.885 3.257-9.437 2.455-16.39-1.468Zm-2.294-1.4a45.57 45.57 0 0 1-5.191-3.982 44.965 44.965 0 0 1-5.298-5.545C4.586 26.378 3.605 31.019 5.7 33.123c2.177 2.187 7.111 1.066 12.574-2.414Zm4.386-3.224a3.596 3.596 0 0 1-4.449.13 50.444 50.444 0 0 1-3.442-2.792 50.104 50.104 0 0 1-3.576-3.497 3.567 3.567 0 0 1-.137-4.697 50.12 50.12 0 0 1 3.368-3.697 50.431 50.431 0 0 1 3.274-2.987 3.596 3.596 0 0 1 4.449-.13 50.458 50.458 0 0 1 3.442 2.793 50.118 50.118 0 0 1 3.576 3.496 3.567 3.567 0 0 1 .137 4.697 50.14 50.14 0 0 1-3.368 3.697 50.425 50.425 0 0 1-3.274 2.987Zm8.314-4.765c.874-1.073 2.56-1.065 3.245.138 2.292 4.03 2.898 7.54 1.25 9.4-1.704 1.925-5.452 1.668-9.926-.297-1.328-.583-1.452-2.369-.351-3.314a46.932 46.932 0 0 0 5.782-5.927Zm1.599-6.472c3.198-5.196 4.178-9.837 2.085-11.94C32.48 2.12 27.546 3.24 22.083 6.72a45.579 45.579 0 0 1 5.191 3.983 44.98 44.98 0 0 1 5.298 5.544ZM15.165 8.783c1.101-.945.977-2.73-.351-3.314-4.474-1.965-8.222-2.222-9.926-.297-1.648 1.86-1.042 5.37 1.25 9.4.685 1.203 2.37 1.211 3.245.138a46.93 46.93 0 0 1 5.782-5.927Z" fill="#FFFFFF" stroke="#FFFFFF" stroke-width="2px"></path></svg>