<svg xmlns:xlink="http://www.w3.org/1999/xlink" width="18" height="18" viewBox="0 0 18 18" fill="none" xmlns="http://www.w3.org/2000/svg"><path d="M5.864 8.556 5.005 9l.86.444a6.283 6.283 0 0 1 2.69 2.692l.445.858.444-.858a6.288 6.288 0 0 1 2.692-2.692L12.994 9l-.858-.444a6.288 6.288 0 0 1-2.692-2.692L9 5.006l-.444.858a6.289 6.289 0 0 1-2.692 2.692ZM3 8.75A5.752 5.752 0 0 0 8.75 3a.25.25 0 0 1 .5 0A5.752 5.752 0 0 0 15 8.75a.25.25 0 0 1 0 .5A5.752 5.752 0 0 0 9.25 15a.25.25 0 0 1-.5 0A5.752 5.752 0 0 0 3 9.25a.25.25 0 0 1 0-.5Z" fill="#CA37ED" stroke="#CA37ED"></path></svg>